<?xml version="1.0" encoding="UTF-8"?>
<svg width="1200pt" height="1200pt" version="1.1" viewBox="0 0 1200 1200" xmlns="http://www.w3.org/2000/svg">
 <path d="m828 372c-14.398-14.398-38.398-14.398-52.801 0l-175.2 175.2-174-175.2c-14.398-14.398-38.398-14.398-52.801 0-14.398 14.398-14.398 38.398 0 52.801l174 175.2-175.2 174c-14.398 14.398-14.398 38.398 0 52.801 7.1992 7.1992 16.801 10.801 26.398 10.801 9.6016 0 19.199-3.6016 26.398-10.801l175.2-174 174 175.2c7.1992 7.1992 16.801 10.801 26.398 10.801 9.6016 0 19.199-3.6016 26.398-10.801 14.398-14.398 14.398-38.398 0-52.801l-174-175.2 175.2-174c14.398-15.602 14.398-38.398 0-54z"/>
 <path d="m600 60c-298.8 0-540 241.2-540 540s241.2 540 540 540 540-241.2 540-540-241.2-540-540-540zm328.8 868.8c-87.602 87.602-204 135.6-328.8 135.6-123.6 0-241.2-48-328.8-135.6-87.602-87.602-135.6-204-135.6-328.8 0-123.6 48-241.2 135.6-328.8 87.602-87.602 204-135.6 328.8-135.6 123.6 0 241.2 48 328.8 135.6 87.602 87.602 135.6 204 135.6 328.8-0.003906 123.6-48.004 241.2-135.6 328.8z"/>
</svg>
