<?xml version="1.0" encoding="UTF-8"?>
<svg width="1200pt" height="1200pt" version="1.1" viewBox="0 0 1200 1200" xmlns="http://www.w3.org/2000/svg">
 <path d="m600 93.75c-279.19 0-506.26 227.06-506.26 506.26 0 279.19 227.06 506.26 506.26 506.26 279.19 0 506.26-227.06 506.26-506.26 0-279.19-227.06-506.26-506.26-506.26zm0 975c-258.56 0-468.74-210.19-468.74-468.74 0-258.55 210.19-468.74 468.74-468.74s468.74 210.19 468.74 468.74c0 258.55-210.19 468.74-468.74 468.74z"/>
 <path d="m838.31 361.69c-7.3125-7.3125-19.125-7.3125-26.438 0l-211.69 211.69-211.69-211.69c-7.3125-7.3125-19.125-7.3125-26.438 0s-7.3125 19.125 0 26.438l211.69 211.69-211.69 211.69c-7.3125 7.3125-7.3125 19.125 0 26.438 3.75 3.75 8.4375 5.4375 13.312 5.4375s9.5625-1.875 13.312-5.4375l211.69-211.69 211.69 211.69c3.75 3.75 8.4375 5.4375 13.312 5.4375s9.5625-1.875 13.312-5.4375c7.3125-7.3125 7.3125-19.125 0-26.438l-211.69-211.69 211.69-211.69c7.3125-7.3125 7.3125-19.125 0-26.438z"/>
</svg>
