<?xml version="1.0" encoding="UTF-8"?>
<svg width="1200pt" height="1200pt" version="1.1" viewBox="0 0 1200 1200" xmlns="http://www.w3.org/2000/svg">
 <path d="m240 204c-39.75 0-72 32.25-72 72v504c0 39.75 32.25 72 72 72h222.79c21.984 0 42.797 10.078 56.438 27.328l80.766 102 80.766-102c13.641-17.25 34.453-27.328 56.438-27.328h222.79c39.75 0 72-32.25 72-72v-504c0-39.75-32.25-72-72-72zm-120 72c0-66.281 53.719-120 120-120h720c66.281 0 120 53.719 120 120v504c0 66.281-53.719 120-120 120h-222.79c-7.3125 0-14.25 3.375-18.797 9.0938l-99.609 125.81c-4.5469 5.7188-11.484 9.0938-18.797 9.0938s-14.25-3.375-18.797-9.0938l-99.609-125.81c-4.5469-5.7188-11.484-9.0938-18.797-9.0938h-222.79c-66.281 0-120-53.719-120-120zm228 108c0-13.266 10.734-24 24-24h456c13.266 0 24 10.734 24 24s-10.734 24-24 24h-456c-13.266 0-24-10.734-24-24zm0 96c0-13.266 10.734-24 24-24h456c13.266 0 24 10.734 24 24s-10.734 24-24 24h-456c-13.266 0-24-10.734-24-24zm0 96c0-13.266 10.734-24 24-24h456c13.266 0 24 10.734 24 24s-10.734 24-24 24h-456c-13.266 0-24-10.734-24-24zm0 96c0-13.266 10.734-24 24-24h228c13.266 0 24 10.734 24 24s-10.734 24-24 24h-228c-13.266 0-24-10.734-24-24z" fill-rule="evenodd"/>
</svg>
