<?xml version="1.0" encoding="UTF-8"?>
<svg width="1200pt" height="1200pt" version="1.1" viewBox="0 0 1200 1200" xmlns="http://www.w3.org/2000/svg">
 <path d="m1092 1140h-720c-26.398 0-48-21.602-48-48v-240c0-132 108-240 240-240h336c132 0 240 108 240 240v240c0 26.398-21.602 48-48 48zm-360-624c-126 0-228-102-228-228s102-228 228-228 228 102 228 228-102 228-228 228zm-492-48c-26.398 0-48-21.602-48-48v-84h-84c-26.398 0-48-21.602-48-48s21.602-48 48-48h84v-84c0-26.398 21.602-48 48-48s48 21.602 48 48v84h84c26.398 0 48 21.602 48 48s-21.602 48-48 48h-84v84c0 26.398-21.602 48-48 48z" fill="#0069ff"/>
</svg>
