<?xml version="1.0" encoding="UTF-8"?>
<svg width="1200pt" height="1200pt" version="1.1" viewBox="0 0 1200 1200" xmlns="http://www.w3.org/2000/svg">
 <path d="m1087.5 434.02c3.5156 74.578-24.656 147.24-77.484 199.97l-369.52 366c-22.547 21.984-58.453 21.984-81 0l-369.52-368.48c-52.453-52.125-80.578-123.89-77.531-197.76 3.0469-73.871 36.984-143.11 93.562-190.74 55.359-46.969 127.97-68.391 199.97-59.016 77.109 10.266 146.39 52.312 191.02 116.02l3 3.9844 3-3.9844c44.953-63.094 114.14-104.62 191.02-114.52 72-9.375 144.61 12.047 199.97 59.016 56.297 47.297 90.234 116.06 93.516 189.52z" fill="#ff001b"/>
</svg>
