<?xml version="1.0" encoding="UTF-8"?>
<svg width="1200pt" height="1200pt" version="1.1" viewBox="0 0 1200 1200" xmlns="http://www.w3.org/2000/svg">
 <path d="m476.4 580.8h102c9.6016 0 18-8.3984 18-18 0-9.6016-8.3984-18-18-18h-102c-9.6016 0-18 8.3984-18 18 0 9.5977 8.4023 18 18 18z" fill="#cee4ff"/>
 <path d="m837.6 399.6-4.8008 4.8008c-10.801-25.199-36-43.199-64.801-43.199l-334.8-0.003906c-39.602 0-70.801 32.398-70.801 70.801v333.6c0 39.602 32.398 70.801 70.801 70.801h333.6c39.602 0 70.801-32.398 70.801-70.801v-162l100.8-100.8c13.199-13.199 21.602-32.398 21.602-51.602 0-19.199-7.1992-37.199-21.602-51.602-26.402-28.797-72.004-28.797-100.8 0.003906zm-70.801 403.2h-333.6c-19.199 0-34.801-15.602-34.801-34.801v-334.8c0-19.199 15.602-34.801 34.801-34.801h333.6c19.199 0 34.801 15.602 34.801 34.801v1.1992l-116.4 116.4c-1.1992 1.1992-2.3984 3.6016-3.6016 4.8008 0 0 0 1.1992-1.1992 1.1992v1.1992l-25.199 92.398h-180c-9.6016 0-18 8.3984-18 18 0 9.6016 8.3984 18 18 18l196.8 0.003907c3.6016 0 6-1.1992 8.3984-2.3984l99.602-27.602h1.1992s1.1992 0 1.1992-1.1992c2.3984-1.1992 3.6016-2.3984 4.8008-3.6016l13.199-13.199v127.2c2.4023 20.402-14.398 37.203-33.598 37.203zm-25.199-171.6-45.602 12 12-45.602zm34.797-16.801-51.602-51.602 91.199-91.199 51.602 51.602zm138-138-22.801 22.801-51.598-51.598 22.801-22.801c14.398-14.398 37.199-14.398 51.602 0 7.1992 7.1992 10.801 15.602 10.801 25.199-0.003906 9.6016-3.6016 19.199-10.805 26.398z" fill="#cee4ff"/>
</svg>
