<?xml version="1.0" encoding="UTF-8"?>
<svg width="1200pt" height="1200pt" version="1.1" viewBox="0 0 1200 1200" xmlns="http://www.w3.org/2000/svg">
 <path d="m600 96c-277.92 0-504 226.08-504 504 0 157.2 72.359 297.84 185.52 390.36 2.0391 2.6406 4.8008 4.9219 8.0391 6.6016 0.23828 0 0.35938 0.23828 0.60156 0.23828 85.559 66.84 193.08 106.68 309.84 106.68 277.92 0 504-226.08 504-504 0-277.92-226.08-503.88-504-503.88zm0 960c-100.2 0-192.96-32.52-268.2-87.48 56.16-94.559 157.2-152.52 268.2-152.52s212.04 57.961 268.2 152.52c-75.359 54.961-168.12 87.48-268.2 87.48zm305.88-118.08c-65.52-105.48-180.36-169.92-305.88-169.92s-240.36 64.441-305.88 169.92c-92.16-83.52-150.12-204.12-150.12-337.92 0-251.4 204.6-456 456-456s456 204.6 456 456c0 133.92-57.961 254.52-150.12 337.92z"/>
 <path d="m594.72 335.28c-104.76 0-190.08 85.199-190.08 190.08s85.199 190.08 190.08 190.08 190.08-85.32 190.08-190.08c0-104.76-85.199-190.08-190.08-190.08zm0 332.16c-78.359 0-142.08-63.719-142.08-142.08s63.719-142.08 142.08-142.08 142.08 63.719 142.08 142.08-63.719 142.08-142.08 142.08z"/>
</svg>
