<?xml version="1.0" encoding="UTF-8"?>
<svg width="1200pt" height="1200pt" version="1.1" viewBox="0 0 1200 1200" xmlns="http://www.w3.org/2000/svg">
 <path d="m1069.8 160.6-278.07-46.297-20.578-82.332c-2.6758-11.027-12.48-18.613-23.773-18.613h-294.48c-11.293 0-21.047 7.5859-23.773 18.613l-20.051 82.332-278.11 46.297c-12.012 1.9688-20.578 12.254-20.578 24.254v98.004c0 13.477 11.051 24.504 24.504 24.504h931c13.488 0 24.492-11.027 24.492-24.504v-98.004c-0.003907-12.004-8.5703-22.289-20.57-24.254z" fill="#9b9b9b"/>
 <path d="m257.43 1166.3c0.76953 12.984 11.531 23.039 24.504 23.039h637c13.008 0 23.773-10.055 24.492-23.039l46.32-809.96h-778.59zm491-737.44c0.71875-13.477 12.73-23.762 25.453-23.52 13.738 0.48047 24.254 12.012 23.543 25.488l-24.504 587.96c-0.51562 13.246-11.281 23.543-24.492 23.543h-1.0078c-13.441-0.50391-24.023-12.012-23.496-25.5zm-171.5 0.98438c0-13.477 11.004-24.504 24.504-24.504 13.691 0 24.492 11.027 24.492 24.504v588c0 13.453-10.801 24.504-24.492 24.504-13.5 0-24.504-11.051-24.504-24.504zm-148-24.504c13.5-0.23828 24.984 10.043 25.5 23.52l24.504 587.99c0.71875 13.488-9.8047 24.996-23.543 25.5h-0.96094c-13.02 0-23.785-10.285-24.504-23.543l-24.504-587.98c-0.51953-13.477 10.055-25.008 23.508-25.488z" fill="#9b9b9b"/>
</svg>
